<?xml version="1.0" standalone="no"?>
<!DOCTYPE svg PUBLIC "-//W3C//DTD SVG 20010904//EN"
 "http://www.w3.org/TR/2001/REC-SVG-20010904/DTD/svg10.dtd">
<svg version="1.0" xmlns="http://www.w3.org/2000/svg"
 width="512.000000pt" height="512.000000pt" viewBox="0 0 512.000000 512.000000"
 preserveAspectRatio="xMidYMid meet">

<g transform="translate(0.000000,512.000000) scale(0.100000,-0.100000)"
fill="#2af598" stroke="none">
<path d="M1910 3473 c-14 -2 -68 -16 -120 -30 -445 -118 -782 -555 -757 -982
6 -107 38 -222 86 -308 l29 -52 -62 -5 c-33 -3 -279 -7 -546 -9 -506 -4 -522
-5 -535 -47 -11 -35 4 -59 43 -69 88 -24 830 -55 1080 -45 174 6 184 6 205
-13 43 -39 151 -106 231 -144 116 -54 223 -87 361 -111 106 -18 148 -20 350
-15 353 8 509 37 1342 251 396 102 565 134 807 155 100 9 123 14 142 32 45 42
39 112 -11 145 -24 16 -40 16 -190 5 -280 -21 -491 -59 -1045 -190 -688 -162
-923 -198 -1235 -188 -200 6 -298 25 -415 80 l-65 30 40 9 c404 95 631 203
815 387 91 90 147 195 175 325 25 112 16 312 -17 416 -37 113 -76 184 -130
239 -103 102 -226 142 -427 140 -69 -1 -137 -4 -151 -6z m249 -178 c153 -20
280 -150 317 -324 40 -188 -10 -345 -156 -492 -163 -164 -423 -276 -790 -338
l-115 -20 -24 22 c-51 47 -110 140 -142 224 -29 78 -33 100 -33 193 -1 121 14
177 74 280 152 260 533 484 790 464 19 -2 55 -6 79 -9z"/>
<path d="M4380 2608 c-41 -28 -59 -76 -42 -113 7 -15 55 -53 114 -92 222 -143
355 -232 365 -245 9 -10 -6 -21 -75 -53 -256 -116 -289 -135 -313 -180 -32
-60 -18 -90 43 -99 50 -8 81 2 293 89 214 88 312 140 335 178 43 71 23 109
-104 193 -55 37 -172 116 -258 176 -226 156 -298 186 -358 146z"/>
</g>
</svg>
