<?xml version="1.0" encoding="UTF-8"?>
<svg width="752pt" height="752pt" version="1.1" viewBox="0 0 752 752" xmlns="http://www.w3.org/2000/svg">
 <path d="m527.65 559.9c-62.766-31.359-118.68-81.863-147.2-146.94-5.1523-11.762-11.504-30.121-14.262-48.73 38.215-23.703 83.367-60.375 53.895-80.398-17.977-12.211-49.168 0.44531-62.625 14.059-15.473 15.652-19.445 38.512-18.125 59.93-7.3047 3.8477-14.801 7.2305-22.418 9.9336-19.492 6.9141-57.93 14.488-70.664-8.2695-9.6484-17.242 3.9961-42.234 12.496-57.039 15.441-26.895 35.582-51.875 57.258-74.645-3.4141 14.855-6.832 29.711-10.246 44.57-3.6367 15.812 22.164 16.445 25.461 2.1055 6.7969-29.57 13.598-59.137 20.395-88.707 2.3984-10.43-9.3125-14.281-17.164-11.75-28.887 9.3125-57.77 18.625-86.656 27.938-15.934 5.1367-6.8789 26.469 8.8633 21.395 15.418-4.9688 30.832-9.9414 46.25-14.91-31.25 31.277-61.969 67.367-78.617 107.69-28.766 69.664 46.863 88.27 100.58 70.023 3.168-1.0781 9.3633-3.9453 17.168-8.0547 17.102 89.543 95.305 160.36 173.22 199.29 12.188 6.0898 27.715-9.832 12.391-17.484zm-136.62-258.69c2.4492-0.85938 7.8555-2.8672 11.004-2.2734-0.24219 0.26562-0.46484 0.78125-0.59375 1.7773-1.1055 8.3945-11.074 17.777-16.562 23.375-6.0938 6.2148-12.809 12.023-19.906 17.402 1.0625-18.219 7.9961-33.949 26.059-40.281z"/>
</svg>
